<svg width="2800" height="400" viewBox="0 0 2800 400" fill="none" xmlns="http://www.w3.org/2000/svg">
<rect width="2800" height="400" fill="white"/>
<path fill-rule="evenodd" clip-rule="evenodd" d="M302 2H398V98H302V2ZM202 2H298V98H202V2ZM102 2H198V98H102V2ZM2 2H98V98H2V2ZM398 102H302V198H398V102ZM298 102H202V198H298V102ZM198 102H102V198H198V102ZM98 102H2V198H98V102ZM2 298V202H98V298H2ZM102 298V202H198V298H102ZM202 298V202H298V298H202ZM302 298V202H398V298H302ZM398 302H302V398H398V302ZM298 302H202V398H298V302ZM198 302H102V398H198V302ZM98 302H2V398H98V302Z" fill="black"/>
<path fill-rule="evenodd" clip-rule="evenodd" d="M702 2H798V98H702V2ZM602 2H698V98H602V2ZM502 2H598V98H502V2ZM402 2H498V98H402V2ZM798 102H702V198H798V102ZM698 102H602V198H698V102ZM598 102H502V198H598V102ZM498 102H402V198H498V102ZM402 298V202H498V298H402ZM502 298V202H598V298H502ZM602 298V202H698V298H602ZM702 298V202H798V298H702ZM798 302H702V398H798V302ZM698 302H602V398H698V302ZM598 302H502V398H598V302ZM498 302H402V398H498V302Z" fill="black"/>
<path fill-rule="evenodd" clip-rule="evenodd" d="M1102 2H1198V98H1102V2ZM1002 2H1098V98H1002V2ZM902 2H998V98H902V2ZM802 2H898V98H802V2ZM1198 102H1102V198H1198V102ZM1098 102H1002V198H1098V102ZM998 102H902V198H998V102ZM898 102H802V198H898V102ZM802 298V202H898V298H802ZM902 298V202H998V298H902ZM1002 298V202H1098V298H1002ZM1102 298V202H1198V298H1102ZM1198 302H1102V398H1198V302ZM1098 302H1002V398H1098V302ZM998 302H902V398H998V302ZM898 302H802V398H898V302Z" fill="black"/>
<path fill-rule="evenodd" clip-rule="evenodd" d="M1502 2H1598V98H1502V2ZM1402 2H1498V98H1402V2ZM1302 2H1398V98H1302V2ZM1202 2H1298V98H1202V2ZM1598 102H1502V198H1598V102ZM1498 102H1402V198H1498V102ZM1398 102H1302V198H1398V102ZM1298 102H1202V198H1298V102ZM1202 298V202H1298V298H1202ZM1302 298V202H1398V298H1302ZM1402 298V202H1498V298H1402ZM1502 298V202H1598V298H1502ZM1598 302H1502V398H1598V302ZM1498 302H1402V398H1498V302ZM1398 302H1302V398H1398V302ZM1298 302H1202V398H1298V302Z" fill="black"/>
<path fill-rule="evenodd" clip-rule="evenodd" d="M1902 2H1998V98H1902V2ZM1802 2H1898V98H1802V2ZM1702 2H1798V98H1702V2ZM1602 2H1698V98H1602V2ZM1998 102H1902V198H1998V102ZM1898 102H1802V198H1898V102ZM1798 102H1702V198H1798V102ZM1698 102H1602V198H1698V102ZM1602 298V202H1698V298H1602ZM1702 298V202H1798V298H1702ZM1802 298V202H1898V298H1802ZM1902 298V202H1998V298H1902ZM1998 302H1902V398H1998V302ZM1898 302H1802V398H1898V302ZM1798 302H1702V398H1798V302ZM1698 302H1602V398H1698V302Z" fill="black"/>
<path fill-rule="evenodd" clip-rule="evenodd" d="M2302 2H2398V98H2302V2ZM2202 2H2298V98H2202V2ZM2102 2H2198V98H2102V2ZM2002 2H2098V98H2002V2ZM2398 102H2302V198H2398V102ZM2298 102H2202V198H2298V102ZM2198 102H2102V198H2198V102ZM2098 102H2002V198H2098V102ZM2002 298V202H2098V298H2002ZM2102 298V202H2198V298H2102ZM2202 298V202H2298V298H2202ZM2302 298V202H2398V298H2302ZM2398 302H2302V398H2398V302ZM2298 302H2202V398H2298V302ZM2198 302H2102V398H2198V302ZM2098 302H2002V398H2098V302Z" fill="black"/>
<path fill-rule="evenodd" clip-rule="evenodd" d="M2702 2H2798V98H2702V2ZM2602 2H2698V98H2602V2ZM2502 2H2598V98H2502V2ZM2402 2H2498V98H2402V2ZM2798 102H2702V198H2798V102ZM2698 102H2602V198H2698V102ZM2598 102H2502V198H2598V102ZM2498 102H2402V198H2498V102ZM2402 298V202H2498V298H2402ZM2502 298V202H2598V298H2502ZM2602 298V202H2698V298H2602ZM2702 298V202H2798V298H2702ZM2798 302H2702V398H2798V302ZM2698 302H2602V398H2698V302ZM2598 302H2502V398H2598V302ZM2498 302H2402V398H2498V302Z" fill="black"/>
</svg>
