<svg width="400" height="400" viewBox="0 0 400 400" fill="none" xmlns="http://www.w3.org/2000/svg">
<rect width="400" height="400" fill="white"/>
<path fill-rule="evenodd" clip-rule="evenodd" d="M302 2H398V98H302V2ZM202 2H298V98H202V2ZM102 2H198V98H102V2ZM2 2H98V98H2V2ZM398 102H302V198H398V102ZM298 102H202V198H298V102ZM198 102H102V198H198V102ZM98 102H2V198H98V102ZM2 298V202H98V298H2ZM102 298V202H198V298H102ZM202 298V202H298V298H202ZM302 298V202H398V298H302ZM398 302H302V398H398V302ZM298 302H202V398H298V302ZM198 302H102V398H198V302ZM98 302H2V398H98V302Z" fill="black"/>
</svg>
